<svg width="32" height="32" viewBox="0 0 32 32" fill="none" xmlns="http://www.w3.org/2000/svg">
<path d="M21.3333 4C21.6599 4.00004 21.9751 4.11994 22.2192 4.33695C22.4632 4.55397 22.6191 4.853 22.6573 5.17733L22.6667 5.33333V6.66667H25.3333C26.0061 6.66645 26.6541 6.92054 27.1474 7.378C27.6407 7.83545 27.9429 8.46246 27.9933 9.13333L28 9.33333V25.3333C28.0002 26.0061 27.7461 26.6541 27.2887 27.1474C26.8312 27.6407 26.2042 27.9429 25.5333 27.9933L25.3333 28H6.66667C5.9939 28.0002 5.34591 27.7461 4.8526 27.2887C4.35929 26.8312 4.05712 26.2042 4.00667 25.5333L4 25.3333V9.33333C3.99979 8.66056 4.25388 8.01258 4.71133 7.51927C5.16878 7.02596 5.79579 6.72379 6.46667 6.67333L6.66667 6.66667H9.33333V5.33333C9.33371 4.99349 9.46384 4.66662 9.69713 4.41951C9.93042 4.17239 10.2493 4.02369 10.5885 4.00377C10.9278 3.98385 11.2618 4.09423 11.5224 4.31235C11.783 4.53047 11.9505 4.83987 11.9907 5.17733L12 5.33333V6.66667H20V5.33333C20 4.97971 20.1405 4.64057 20.3905 4.39052C20.6406 4.14048 20.9797 4 21.3333 4ZM25.3333 16H6.66667V25.3333H25.3333V16ZM25.3333 9.33333H6.66667V13.3333H25.3333V9.33333Z" fill="#FCEDDA"/>
</svg>
