<svg width="32" height="32" viewBox="0 0 32 32" fill="none" xmlns="http://www.w3.org/2000/svg">
<path d="M16 28C13.6266 28 11.3066 27.2962 9.33316 25.9776C7.35977 24.6591 5.8217 22.7849 4.91345 20.5922C4.0052 18.3995 3.76756 15.9867 4.23058 13.6589C4.6936 11.3312 5.83649 9.19295 7.51472 7.51472C9.19295 5.83649 11.3312 4.6936 13.6589 4.23058C15.9867 3.76756 18.3995 4.0052 20.5922 4.91345C22.7849 5.8217 24.6591 7.35977 25.9776 9.33316C27.2962 11.3066 28 13.6266 28 16C28 19.1826 26.7357 22.2348 24.4853 24.4853C22.2348 26.7357 19.1826 28 16 28ZM16 6.00001C14.0222 6.00001 12.0888 6.5865 10.4443 7.68531C8.79981 8.78412 7.51809 10.3459 6.76121 12.1732C6.00433 14.0004 5.8063 16.0111 6.19215 17.9509C6.578 19.8907 7.53041 21.6725 8.92894 23.0711C10.3275 24.4696 12.1093 25.422 14.0491 25.8079C15.9889 26.1937 17.9996 25.9957 19.8268 25.2388C21.6541 24.4819 23.2159 23.2002 24.3147 21.5557C25.4135 19.9112 26 17.9778 26 16C26 13.3478 24.9464 10.8043 23.0711 8.92894C21.1957 7.05357 18.6522 6.00001 16 6.00001Z" fill="#FCEDDA"/>
<path d="M20 16.9997H16C15.7359 16.9962 15.4835 16.8898 15.2967 16.703C15.1099 16.5162 15.0035 16.2638 15 15.9997V9.33301C15 9.06779 15.1054 8.81344 15.2929 8.6259C15.4804 8.43836 15.7348 8.33301 16 8.33301C16.2652 8.33301 16.5196 8.43836 16.7071 8.6259C16.8946 8.81344 17 9.06779 17 9.33301V14.9997H20C20.2652 14.9997 20.5196 15.105 20.7071 15.2926C20.8946 15.4801 21 15.7345 21 15.9997C21 16.2649 20.8946 16.5192 20.7071 16.7068C20.5196 16.8943 20.2652 16.9997 20 16.9997Z" fill="#FCEDDA"/>
</svg>
