<svg width="42" height="38" viewBox="0 0 42 38" fill="none" xmlns="http://www.w3.org/2000/svg">
<path d="M15.6107 0.538161C12.1457 0.519828 8.77232 3.85649 10.3123 7.99983H4.50065C3.52819 7.99983 2.59556 8.38614 1.90793 9.07377C1.22029 9.7614 0.833984 10.694 0.833984 11.6665V15.3332C0.833984 15.8194 1.02714 16.2857 1.37096 16.6295C1.71477 16.9733 2.18109 17.1665 2.66732 17.1665H19.1673V11.6665H22.834V17.1665H39.334C39.8202 17.1665 40.2865 16.9733 40.6303 16.6295C40.9742 16.2857 41.1673 15.8194 41.1673 15.3332V11.6665C41.1673 10.694 40.781 9.7614 40.0934 9.07377C39.4057 8.38614 38.4731 7.99983 37.5006 7.99983H31.689C33.834 2.00483 25.7673 -2.23017 22.0457 2.93983L21.0007 4.33316L19.9557 2.90316C18.8007 1.27149 17.2057 0.556494 15.6107 0.538161ZM15.5007 4.33316C17.1323 4.33316 17.9573 6.31316 16.8023 7.46816C15.6473 8.62316 13.6673 7.79816 13.6673 6.16649C13.6673 5.68026 13.8605 5.21395 14.2043 4.87013C14.5481 4.52632 15.0144 4.33316 15.5007 4.33316ZM26.5007 4.33316C28.1323 4.33316 28.9573 6.31316 27.8023 7.46816C26.6473 8.62316 24.6673 7.79816 24.6673 6.16649C24.6673 5.68026 24.8605 5.21395 25.2043 4.87013C25.5481 4.52632 26.0144 4.33316 26.5007 4.33316ZM2.66732 18.9998V33.6665C2.66732 34.639 3.05363 35.5716 3.74126 36.2592C4.42889 36.9469 5.36152 37.3332 6.33398 37.3332H35.6673C36.6398 37.3332 37.5724 36.9469 38.26 36.2592C38.9477 35.5716 39.334 34.639 39.334 33.6665V18.9998H22.834V33.6665H19.1673V18.9998H2.66732Z" fill="#FCEDDA"/>
</svg>
