<svg width="22" height="18" viewBox="0 0 22 18" fill="none" xmlns="http://www.w3.org/2000/svg">
<path d="M0.5 16.5C0.5 16.6989 0.579018 16.8897 0.71967 17.0303C0.860322 17.171 1.05109 17.25 1.25 17.25H20.75C20.9489 17.25 21.1397 17.171 21.2803 17.0303C21.421 16.8897 21.5 16.6989 21.5 16.5V7.40625H0.5V16.5ZM3.59375 10.0312C3.59375 9.93179 3.63326 9.83641 3.70359 9.76608C3.77391 9.69576 3.86929 9.65625 3.96875 9.65625H8.28125C8.38071 9.65625 8.47609 9.69576 8.54642 9.76608C8.61674 9.83641 8.65625 9.93179 8.65625 10.0312V13.0312C8.65625 13.1307 8.61674 13.2261 8.54642 13.2964C8.47609 13.3667 8.38071 13.4062 8.28125 13.4062H3.96875C3.86929 13.4062 3.77391 13.3667 3.70359 13.2964C3.63326 13.2261 3.59375 13.1307 3.59375 13.0312V10.0312ZM20.75 0.75H1.25C1.05109 0.75 0.860322 0.829018 0.71967 0.96967C0.579018 1.11032 0.5 1.30109 0.5 1.5V4.59375H21.5V1.5C21.5 1.30109 21.421 1.11032 21.2803 0.96967C21.1397 0.829018 20.9489 0.75 20.75 0.75Z" fill="black"/>
</svg>
