<svg width="20" height="20" viewBox="0 0 20 20" fill="none" xmlns="http://www.w3.org/2000/svg">
<g clip-path="url(#clip0_398_4630)">
<path d="M2.5 4.99349H4.16667M4.16667 4.99349H17.5M4.16667 4.99349V16.6602C4.16667 17.1022 4.34226 17.5261 4.65482 17.8387C4.96738 18.1512 5.39131 18.3268 5.83333 18.3268H14.1667C14.6087 18.3268 15.0326 18.1512 15.3452 17.8387C15.6577 17.5261 15.8333 17.1022 15.8333 16.6602V4.99349M6.66667 4.99349V3.32682C6.66667 2.8848 6.84226 2.46087 7.15482 2.14831C7.46738 1.83575 7.89131 1.66016 8.33333 1.66016H11.6667C12.1087 1.66016 12.5326 1.83575 12.8452 2.14831C13.1577 2.46087 13.3333 2.8848 13.3333 3.32682V4.99349M8.33333 9.16016V14.1602M11.6667 9.16016V14.1602" stroke="#1E1E1E" stroke-width="2" stroke-linecap="round" stroke-linejoin="round"/>
</g>
<defs>
<clipPath id="clip0_398_4630">
<rect width="20" height="20" fill="white" transform="translate(0 -0.00585938)"/>
</clipPath>
</defs>
</svg>
