<svg width="32" height="32" viewBox="0 0 32 32" fill="none" xmlns="http://www.w3.org/2000/svg">
<circle cx="16" cy="16" r="15.5" fill="#FF5126" stroke="#FFDEB5"/>
<path fill-rule="evenodd" clip-rule="evenodd" d="M14.46 10.3232C14.1436 10.6395 13.9292 11.1376 13.9292 11.8614C13.9292 12.7525 14.2296 13.6549 14.6755 14.3236C15.1413 15.0225 15.6494 15.3096 15.9982 15.3096C16.3469 15.3096 16.855 15.0225 17.3209 14.3236C17.7667 13.6549 18.0671 12.7525 18.0671 11.8614C18.0671 11.1376 17.8527 10.6395 17.5364 10.3232C17.22 10.0068 16.722 9.7924 15.9982 9.7924C15.2744 9.7924 14.7763 10.0068 14.46 10.3232ZM18.1328 15.5355C18.254 15.3925 18.3662 15.2423 18.4686 15.0887C19.0572 14.2058 19.4465 13.0392 19.4465 11.8614C19.4465 10.861 19.1436 9.97978 18.5117 9.34784C17.8798 8.7159 16.9985 8.41309 15.9982 8.41309C14.9978 8.41309 14.1166 8.7159 13.4847 9.34784C12.8527 9.97978 12.5499 10.861 12.5499 11.8614C12.5499 13.0392 12.9391 14.2058 13.5278 15.0887C13.6302 15.2423 13.7424 15.3925 13.8636 15.5355C13.1161 15.6923 12.3578 15.9376 11.6727 16.2919C10.2846 17.0099 9.10169 18.2393 9.10167 20.1372C9.10167 20.1372 9.10167 20.1372 9.10167 20.1372L9.10156 21.5164C9.10148 22.6591 10.0278 23.5855 11.1705 23.5855H20.8258C21.9685 23.5855 22.8948 22.6592 22.8948 21.5165V20.1372C22.8948 18.2393 21.7119 17.0099 20.3237 16.2919C19.6386 15.9376 18.8803 15.6923 18.1328 15.5355ZM15.9982 16.6889C14.8689 16.6889 13.4331 16.9343 12.3064 17.517C11.1946 18.0921 10.481 18.9317 10.481 20.1372L10.4809 21.5165C10.4808 21.8974 10.7896 22.2062 11.1705 22.2062H20.8258C21.2067 22.2062 21.5155 21.8974 21.5155 21.5165V20.1372C21.5155 18.9317 20.8018 18.0921 19.69 17.517C18.5633 16.9343 17.1275 16.6889 15.9982 16.6889Z" fill="#FCEDDA"/>
</svg>
