<svg width="48" height="48" viewBox="0 0 48 48" fill="none" xmlns="http://www.w3.org/2000/svg">
<path d="M14 28H34C34.5667 28 35.042 27.808 35.426 27.424C35.81 27.04 36.0013 26.5653 36 26C35.9987 25.4347 35.8067 24.96 35.424 24.576C35.0413 24.192 34.5667 24 34 24H14C13.4333 24 12.9587 24.192 12.576 24.576C12.1933 24.96 12.0013 25.4347 12 26C11.9987 26.5653 12.1907 27.0407 12.576 27.426C12.9613 27.8113 13.436 28.0027 14 28ZM14 22H34C34.5667 22 35.042 21.808 35.426 21.424C35.81 21.04 36.0013 20.5653 36 20C35.9987 19.4347 35.8067 18.96 35.424 18.576C35.0413 18.192 34.5667 18 34 18H14C13.4333 18 12.9587 18.192 12.576 18.576C12.1933 18.96 12.0013 19.4347 12 20C11.9987 20.5653 12.1907 21.0407 12.576 21.426C12.9613 21.8113 13.436 22.0027 14 22ZM14 16H34C34.5667 16 35.042 15.808 35.426 15.424C35.81 15.04 36.0013 14.5653 36 14C35.9987 13.4347 35.8067 12.96 35.424 12.576C35.0413 12.192 34.5667 12 34 12H14C13.4333 12 12.9587 12.192 12.576 12.576C12.1933 12.96 12.0013 13.4347 12 14C11.9987 14.5653 12.1907 15.0407 12.576 15.426C12.9613 15.8113 13.436 16.0027 14 16ZM8 36C6.9 36 5.95867 35.6087 5.176 34.826C4.39333 34.0433 4.00133 33.1013 4 32V8C4 6.9 4.392 5.95867 5.176 5.176C5.96 4.39333 6.90133 4.00133 8 4H40C41.1 4 42.042 4.392 42.826 5.176C43.61 5.96 44.0013 6.90133 44 8V39.15C44 40.05 43.592 40.6753 42.776 41.026C41.96 41.3767 41.2347 41.2347 40.6 40.6L36 36H8ZM37.7 32L40 34.25V8H8V32H37.7Z" fill="#2B2B2B"/>
</svg>
