<svg width="48" height="46" viewBox="0 0 48 46" fill="none" xmlns="http://www.w3.org/2000/svg">
<rect y="0.5" width="48" height="45" rx="5" fill="#FCEDDA"/>
<path d="M23.9993 18.1673H12.3327C11.4122 18.1673 10.666 18.9135 10.666 19.834V31.5007C10.666 32.4211 11.4122 33.1673 12.3327 33.1673H23.9993C24.9198 33.1673 25.666 32.4211 25.666 31.5007V19.834C25.666 18.9135 24.9198 18.1673 23.9993 18.1673Z" fill="#FCEDDA"/>
<path d="M15.2493 24.0007C15.9397 24.0007 16.4993 23.441 16.4993 22.7507C16.4993 22.0603 15.9397 21.5007 15.2493 21.5007C14.559 21.5007 13.9993 22.0603 13.9993 22.7507C13.9993 23.441 14.559 24.0007 15.2493 24.0007Z" fill="#FCEDDA"/>
<path d="M25.666 28.1673L21.4993 24.0007L12.3327 33.1673" fill="#FCEDDA"/>
<path d="M12.3327 33.1673H23.9993C24.9198 33.1673 25.666 32.4211 25.666 31.5007V19.834C25.666 18.9135 24.9198 18.1673 23.9993 18.1673H12.3327C11.4122 18.1673 10.666 18.9135 10.666 19.834V31.5007C10.666 32.4211 11.4122 33.1673 12.3327 33.1673ZM12.3327 33.1673L21.4993 24.0007L25.666 28.1673M37.3327 14.5007L31.4993 18.6673L37.3327 22.834V14.5007ZM20.666 12.834H29.8327C30.7532 12.834 31.4993 13.5802 31.4993 14.5007V22.834C31.4993 23.7545 30.7532 24.5007 29.8327 24.5007H20.666C19.7455 24.5007 18.9993 23.7545 18.9993 22.834V14.5007C18.9993 13.5802 19.7455 12.834 20.666 12.834ZM16.4993 22.7507C16.4993 23.441 15.9397 24.0007 15.2493 24.0007C14.559 24.0007 13.9993 23.441 13.9993 22.7507C13.9993 22.0603 14.559 21.5007 15.2493 21.5007C15.9397 21.5007 16.4993 22.0603 16.4993 22.7507Z" stroke="#1E1E1E" stroke-width="1.5" stroke-linecap="round" stroke-linejoin="round"/>
</svg>
