<svg width="29" height="42" viewBox="0 0 29 42" fill="none" xmlns="http://www.w3.org/2000/svg">
<path d="M14.4997 41.4173C14.0233 41.4173 13.615 41.2812 13.2747 41.009C12.9344 40.7368 12.6792 40.3795 12.5091 39.9371C11.8625 38.0315 11.0459 36.2451 10.0591 34.5777C9.10627 32.9104 7.76218 30.9538 6.02676 28.7079C4.29134 26.4621 2.87919 24.3184 1.7903 22.2767C0.735439 20.235 0.208008 17.768 0.208008 14.8756C0.208008 10.8944 1.58613 7.52565 4.34238 4.7694C7.13266 1.97912 10.5184 0.583984 14.4997 0.583984C18.4809 0.583984 21.8497 1.97912 24.6059 4.7694C27.3962 7.52565 28.7913 10.8944 28.7913 14.8756C28.7913 17.9722 28.1959 20.5583 27.0049 22.634C25.8479 24.6756 24.5038 26.7003 22.9726 28.7079C21.1351 31.1579 19.74 33.1996 18.7872 34.8329C17.8684 36.4322 17.1028 38.1336 16.4903 39.9371C16.3202 40.4135 16.0479 40.7878 15.6736 41.06C15.3334 41.2982 14.942 41.4173 14.4997 41.4173ZM14.4997 34.1184C15.0781 32.9614 15.7247 31.8215 16.4393 30.6986C17.1879 29.5756 18.2768 28.0784 19.7059 26.2069C21.1691 24.3013 22.3601 22.5489 23.2788 20.9496C24.2316 19.3163 24.708 17.2916 24.708 14.8756C24.708 12.0513 23.7042 9.65239 21.6966 7.67878C19.7229 5.67114 17.324 4.66732 14.4997 4.66732C11.6754 4.66732 9.2594 5.67114 7.25176 7.67878C5.27815 9.65239 4.29134 12.0513 4.29134 14.8756C4.29134 17.2916 4.75072 19.3163 5.66947 20.9496C6.62224 22.5489 7.83023 24.3013 9.29343 26.2069C10.7226 28.0784 11.7945 29.5756 12.5091 30.6986C13.2577 31.8215 13.9212 32.9614 14.4997 34.1184ZM14.4997 19.9798C15.9288 19.9798 17.1368 19.4864 18.1236 18.4996C19.1104 17.5128 19.6038 16.3048 19.6038 14.8756C19.6038 13.4465 19.1104 12.2385 18.1236 11.2517C17.1368 10.2649 15.9288 9.77148 14.4997 9.77148C13.0705 9.77148 11.8625 10.2649 10.8757 11.2517C9.88891 12.2385 9.39551 13.4465 9.39551 14.8756C9.39551 16.3048 9.88891 17.5128 10.8757 18.4996C11.8625 19.4864 13.0705 19.9798 14.4997 19.9798Z" fill="#1D1B20"/>
</svg>
