<svg width="32" height="32" viewBox="0 0 32 32" fill="none" xmlns="http://www.w3.org/2000/svg">
<path d="M15.9993 29.3337C15.6882 29.3337 15.4216 29.2448 15.1993 29.067C14.9771 28.8892 14.8105 28.6559 14.6993 28.367C14.2771 27.1225 13.7438 25.9559 13.0994 24.867C12.4771 23.7781 11.5993 22.5003 10.466 21.0337C9.33268 19.567 8.41046 18.167 7.69935 16.8337C7.01046 15.5003 6.66602 13.8892 6.66602 12.0003C6.66602 9.40032 7.56602 7.20032 9.36602 5.40032C11.1882 3.5781 13.3993 2.66699 15.9993 2.66699C18.5994 2.66699 20.7994 3.5781 22.5994 5.40032C24.4216 7.20032 25.3327 9.40032 25.3327 12.0003C25.3327 14.0225 24.9438 15.7114 24.166 17.067C23.4105 18.4003 22.5327 19.7225 21.5327 21.0337C20.3327 22.6337 19.4216 23.967 18.7993 25.0337C18.1994 26.0781 17.6994 27.1892 17.2993 28.367C17.1882 28.6781 17.0105 28.9225 16.766 29.1003C16.5438 29.2559 16.2882 29.3337 15.9993 29.3337ZM15.9993 24.567C16.3771 23.8114 16.7993 23.067 17.266 22.3337C17.7549 21.6003 18.466 20.6225 19.3994 19.4003C20.3549 18.1559 21.1327 17.0114 21.7327 15.967C22.3549 14.9003 22.666 13.5781 22.666 12.0003C22.666 10.1559 22.0105 8.58921 20.6994 7.30033C19.4105 5.98921 17.8438 5.33366 15.9993 5.33366C14.1549 5.33366 12.5771 5.98921 11.266 7.30033C9.97713 8.58921 9.33268 10.1559 9.33268 12.0003C9.33268 13.5781 9.63268 14.9003 10.2327 15.967C10.8549 17.0114 11.6438 18.1559 12.5994 19.4003C13.5327 20.6225 14.2327 21.6003 14.6993 22.3337C15.1882 23.067 15.6216 23.8114 15.9993 24.567ZM15.9993 15.3337C16.9327 15.3337 17.7216 15.0114 18.366 14.367C19.0105 13.7225 19.3327 12.9337 19.3327 12.0003C19.3327 11.067 19.0105 10.2781 18.366 9.63366C17.7216 8.98921 16.9327 8.66699 15.9993 8.66699C15.066 8.66699 14.2771 8.98921 13.6327 9.63366C12.9882 10.2781 12.666 11.067 12.666 12.0003C12.666 12.9337 12.9882 13.7225 13.6327 14.367C14.2771 15.0114 15.066 15.3337 15.9993 15.3337Z" fill="#FCEDDA"/>
</svg>
