<svg width="319" height="88" viewBox="0 0 319 88" fill="none" xmlns="http://www.w3.org/2000/svg">
<g filter="url(#filter0_d_1266_6014)">
<path d="M32.59 31.8112H21.6557V61.598H14.7882V31.8112H4V26.252H32.59V31.8112Z" fill="#2B2B2B"/>
<path d="M37.9963 26.252H58.5012V31.7626H51.5851V56.1116H58.5012V61.598H37.9963V56.1116H44.742V31.7626H37.9963V26.252Z" fill="#2B2B2B"/>
<path d="M77.0092 47.0809L73.2589 51.1836V61.598H66.3915V26.252H73.2589V42.4441L76.4735 38.123L85.0943 26.252H93.4716L81.5388 41.8858L93.91 61.598H85.7762L77.0092 47.0809Z" fill="#2B2B2B"/>
<path d="M118.214 46.1098H103.651V56.0873H120.674V61.598H96.7836V26.252H120.6V31.8112H103.651V40.7205H118.214V46.1098Z" fill="#2B2B2B"/>
<path d="M152.405 31.8112H141.471V61.598H134.603V31.8112H123.815V26.252H152.405V31.8112Z" fill="#2B2B2B"/>
<path d="M179.039 47.0809L175.289 51.1836V61.598H168.421V26.252H175.289V42.4441L178.503 38.123L187.124 26.252H195.502L183.569 41.8858L195.94 61.598H187.806L179.039 47.0809Z" fill="#2B2B2B"/>
<path d="M215.86 54.2181H205.218L203.124 61.598H195.916L207.532 26.252H213.742L225.139 61.598H217.93L215.86 54.2181ZM206.899 48.4161H214.253L210.625 35.4041L206.899 48.4161Z" fill="#2B2B2B"/>
<path d="M240.408 48.3918H235.221V61.598H228.378V26.252H240.262C242.226 26.252 244.004 26.4866 245.595 26.956C247.186 27.4091 248.55 28.0808 249.686 28.9709C250.806 29.861 251.667 30.9696 252.268 32.2967C252.885 33.6238 253.193 35.1613 253.193 36.9092C253.193 38.1715 253.039 39.3125 252.73 40.3321C252.438 41.3355 252.016 42.2337 251.464 43.0268C250.896 43.836 250.214 44.54 249.418 45.1388C248.639 45.7376 247.762 46.2555 246.788 46.6925L254.411 61.2824V61.598H247.08L240.408 48.3918ZM235.221 42.8568H240.286C241.341 42.8568 242.267 42.7112 243.062 42.4199C243.874 42.1124 244.532 41.6754 245.035 41.109C245.457 40.6558 245.774 40.1136 245.985 39.4825C246.212 38.8513 246.326 38.1473 246.326 37.3704C246.326 36.4317 246.179 35.6064 245.887 34.8943C245.611 34.166 245.189 33.5672 244.621 33.0978C244.118 32.677 243.501 32.3534 242.77 32.1268C242.039 31.9002 241.203 31.7869 240.262 31.7869H235.221V42.8568Z" fill="#2B2B2B"/>
<path d="M270.435 42.5412L277.424 26.252H284.949L273.795 49.3628L273.771 61.598H266.952L266.928 49.0715L255.945 26.252H263.445L270.435 42.5412Z" fill="#2B2B2B"/>
<path d="M305.722 54.2181H295.08L292.985 61.598H285.777L297.393 26.252H303.603L315 61.598H307.792L305.722 54.2181ZM296.76 48.4161H304.114L300.486 35.4041L296.76 48.4161Z" fill="#2B2B2B"/>
</g>
<g opacity="0.5">
<path d="M89.1456 88C86.0534 88 83.1108 87.1051 80.3178 85.3153C77.5249 83.6249 75.4301 80.9899 74.0337 77.4102C73.5349 76.1175 73.1858 74.7255 72.9863 73.2339C72.7868 71.7424 72.6871 70.3503 72.6871 69.0577V67.7153C72.6871 66.9198 72.7369 66.1243 72.8367 65.3288C73.0362 64.5334 73.4851 64.1356 74.1833 64.1356C74.3828 64.1356 74.4825 64.2351 74.4825 64.4339C74.4825 65.0305 74.4327 65.6769 74.3329 66.3729C74.3329 66.9695 74.3329 67.5661 74.3329 68.1627C74.3329 72.8362 75.48 76.3661 77.7742 78.7526C80.1682 81.139 83.1108 82.3322 86.602 82.3322C90.0932 82.3322 93.4846 81.3379 96.7763 79.3492C100.068 77.3605 103.11 74.8249 105.903 71.7424C108.696 68.6599 111.34 64.8317 113.833 60.2577C116.327 55.6836 118.671 50.861 120.866 45.7898C123.06 40.6192 125.105 35.548 127 30.5763C128.995 25.6045 130.84 21.1797 132.536 17.3017C133.534 15.0147 135.379 13.0757 138.072 11.4847C140.865 9.89379 143.508 8.75028 146.002 8.05424C145.304 7.9548 144.606 7.90508 143.907 7.90508C143.309 7.80565 142.71 7.70622 142.112 7.60678L121.015 5.51865C119.419 5.31977 117.324 5.17062 114.731 5.07119C112.138 4.97175 109.394 4.92203 106.502 4.92203C102.612 4.92203 98.6217 5.17062 94.532 5.6678C90.4423 6.06554 86.7516 6.8113 83.4599 7.90508C80.1682 8.99887 77.7742 10.6395 76.278 12.8271C75.48 14.0203 75.081 15.4124 75.081 17.0034C75.081 18.5944 75.5299 20.0859 76.4276 21.478C77.3254 22.8701 78.4725 23.9638 79.869 24.7593C80.0684 24.9582 80.1682 25.1074 80.1682 25.2068C80.1682 25.5051 79.9188 25.7537 79.4201 25.9526C79.0211 26.1514 78.5722 26.1514 78.0735 25.9526C77.1757 25.4554 76.1284 24.6102 74.9314 23.417C73.7344 22.2237 72.6372 20.9808 71.6397 19.6881C70.742 18.296 70.0936 17.1525 69.6946 16.2576C69.0961 14.5672 68.7969 13.0757 68.7969 11.7831C68.7969 9.39661 69.5949 7.45763 71.1908 5.9661C72.8866 4.37514 75.0312 3.18192 77.6246 2.38644C80.3178 1.49152 83.1607 0.89491 86.1531 0.596603C89.2453 0.198868 92.1879 0 94.9808 0C96.0781 0 97.1254 0 98.1229 0C99.1204 0 100.068 0.0497169 100.966 0.149151C104.158 0.348018 107.499 0.546889 110.99 0.745762C114.482 0.94463 118.023 1.19322 121.614 1.49152L145.404 3.43051C147 3.52994 149.394 3.72881 152.586 4.02711C155.877 4.22599 159.219 4.32542 162.61 4.32542C166.301 4.32542 169.692 4.12655 172.785 3.72881C175.877 3.23164 177.922 2.38644 178.919 1.19321C179.119 0.795473 179.418 0.696039 179.817 0.894913C180.216 1.09378 180.316 1.34237 180.116 1.64068C179.817 2.8339 179.418 3.72881 178.919 4.32542C178.42 5.31977 177.722 6.41356 176.824 7.60678C176.026 8.8 174.78 9.59548 173.084 9.99322C172.685 10.0927 172.136 10.1921 171.438 10.2915C170.74 10.2915 169.992 10.2915 169.194 10.2915C166.899 10.2915 164.107 10.1424 160.815 9.84407C157.623 9.44633 154.481 9.04859 151.389 8.65085C148.396 9.14802 145.803 10.5401 143.608 12.8271C141.414 15.1141 139.519 17.7492 137.923 20.7322C136.327 23.6158 134.93 26.3503 133.733 28.9356C131.539 33.4102 129.693 37.5367 128.197 41.3153C126.801 44.9944 125.055 49.0712 122.96 53.5458C120.866 58.1198 118.671 62.6441 116.377 67.1187C114.083 71.4938 111.29 75.4712 107.998 79.0509C105.504 81.7356 102.612 83.8735 99.3199 85.4644C96.0282 87.1548 92.6368 88 89.1456 88Z" fill="#2B2B2B"/>
<path d="M132.482 85.3153C132.083 85.3153 131.784 85.2159 131.585 85.017C131.285 84.8181 131.235 84.669 131.435 84.5695C133.729 82.7797 135.624 80.9899 137.121 79.2C138.717 77.4102 140.313 75.1232 141.909 72.339L144.003 68.7593C145.998 65.3786 148.243 61.5006 150.736 57.1254C153.23 52.7503 155.724 48.3254 158.217 43.8509C160.811 39.3763 163.155 35.2497 165.25 31.4712C167.444 27.6927 169.19 24.6599 170.487 22.3729C171.783 19.9864 172.432 18.7932 172.432 18.7932C175.125 14.1198 178.067 10.5898 181.259 8.20339C184.551 5.71751 187.444 4.12655 189.937 3.43051C182.656 3.52994 176.172 4.07684 170.487 5.07119C164.801 6.06554 160.961 8.40226 158.966 12.0814C158.567 12.7774 158.267 13.5729 158.068 14.4678C157.968 15.2633 157.918 16.0588 157.918 16.8542C157.918 19.4396 158.616 21.2791 160.013 22.3729C160.113 22.4723 160.163 22.5718 160.163 22.6712C160.163 22.8701 159.963 23.0689 159.564 23.2678C159.265 23.4667 158.966 23.5164 158.666 23.417C157.769 22.9198 156.671 21.7266 155.375 19.8373C154.078 17.8486 153.28 16.2079 152.981 14.9153C152.681 13.722 152.532 12.6282 152.532 11.6339C152.532 8.94915 153.479 6.86102 155.375 5.36949C157.27 3.87796 159.564 2.8339 162.257 2.23729C165.05 1.64067 167.893 1.29265 170.786 1.19321C173.678 1.09378 176.072 1.04406 177.968 1.04406H183.953C185.948 1.04406 188.092 1.04406 190.386 1.04406C192.78 0.94463 194.775 0.745759 196.371 0.447452H196.97C197.568 0.447452 198.017 0.646323 198.316 1.04406C198.616 1.4418 198.765 1.83955 198.765 2.23729C198.765 3.03277 198.416 3.43051 197.718 3.43051C197.319 3.43051 196.97 3.43051 196.67 3.43051C196.471 3.33107 196.172 3.28135 195.773 3.28135C191.184 3.28135 186.596 7.25875 182.007 15.2136C182.007 15.2136 181.459 16.1085 180.362 17.8983C179.364 19.5887 178.067 21.7763 176.471 24.461C174.975 27.1458 173.379 29.9797 171.683 32.9627C169.988 35.9458 168.492 38.6305 167.195 41.017C164.502 45.9887 161.609 51.4079 158.517 57.2746C155.524 63.0418 152.432 69.0577 149.24 75.3221C148.542 76.5153 147.943 77.9074 147.445 79.4983C146.946 80.9899 146.198 81.7356 145.2 81.7356C144.801 81.7356 144.303 81.6859 143.704 81.5865C143.106 81.487 142.457 81.4373 141.759 81.4373C140.063 81.4373 138.517 81.7356 137.121 82.3322C135.824 82.9288 134.477 83.8735 133.081 85.1661C132.981 85.2656 132.782 85.3153 132.482 85.3153ZM197.718 83.8238C195.224 83.8238 192.681 83.0283 190.087 81.4373C187.494 79.7469 184.85 77.1616 182.157 73.6814C178.965 69.4057 176.272 65.2791 174.077 61.3017C171.883 57.2249 170.088 53.6949 168.691 50.7119C167.394 47.7288 166.397 45.591 165.699 44.2983C171.284 39.1277 177.02 34.504 182.905 30.4271C188.89 26.3503 194.825 22.4723 200.71 18.7932C204.7 16.4068 208.989 13.7718 213.578 10.8881C218.166 7.90509 222.805 5.41921 227.493 3.43051C230.784 2.03841 233.976 1.34237 237.069 1.34237C238.465 1.34237 239.862 1.49152 241.258 1.78983C242.655 1.9887 244.001 2.33672 245.298 2.8339C246.295 3.1322 247.442 3.77853 248.739 4.77288C250.036 5.66779 250.585 6.71186 250.385 7.90508C250.385 8.30282 250.186 8.5017 249.787 8.5017C249.288 8.5017 248.839 8.20339 248.44 7.60678C248.041 7.01017 247.442 6.41356 246.644 5.81695C245.846 5.22034 244.6 4.92203 242.904 4.92203C240.709 4.92203 238.266 5.36949 235.572 6.26441C232.979 7.15932 230.685 8.00452 228.69 8.8C224.7 10.4904 220.51 12.3299 216.121 14.3186C211.732 16.3073 207.593 18.3955 203.703 20.5831C200.212 22.4723 196.521 24.6599 192.631 27.1458C188.74 29.6316 184.95 32.1672 181.259 34.7526C177.668 37.2384 174.427 39.5254 171.534 41.6136C172.132 43.1051 173.13 45.3424 174.526 48.3254C175.923 51.3085 177.768 54.6893 180.062 58.4678C182.357 62.1469 185.05 65.8757 188.142 69.6543C190.436 72.4384 192.681 74.4769 194.875 75.7695C197.169 76.9627 199.314 77.5593 201.309 77.5593C204.002 77.5593 206.496 76.8136 208.79 75.3221C211.184 73.7311 213.428 71.7424 215.523 69.356C217.717 66.9695 219.762 64.5334 221.657 62.0475C222.156 61.4509 222.505 61.1526 222.705 61.1526C223.104 61.1526 223.303 61.4012 223.303 61.8983C223.303 62.4949 223.054 63.0915 222.555 63.6882C218.166 69.7537 213.927 74.626 209.837 78.3051C205.847 81.9842 201.808 83.8238 197.718 83.8238Z" fill="#2B2B2B"/>
</g>
<defs>
<filter id="filter0_d_1266_6014" x="0" y="26.252" width="319" height="43.3457" filterUnits="userSpaceOnUse" color-interpolation-filters="sRGB">
<feFlood flood-opacity="0" result="BackgroundImageFix"/>
<feColorMatrix in="SourceAlpha" type="matrix" values="0 0 0 0 0 0 0 0 0 0 0 0 0 0 0 0 0 0 127 0" result="hardAlpha"/>
<feOffset dy="4"/>
<feGaussianBlur stdDeviation="2"/>
<feComposite in2="hardAlpha" operator="out"/>
<feColorMatrix type="matrix" values="0 0 0 0 0 0 0 0 0 0 0 0 0 0 0 0 0 0 0.25 0"/>
<feBlend mode="normal" in2="BackgroundImageFix" result="effect1_dropShadow_1266_6014"/>
<feBlend mode="normal" in="SourceGraphic" in2="effect1_dropShadow_1266_6014" result="shape"/>
</filter>
</defs>
</svg>
