<svg width="38" height="38" viewBox="0 0 38 38" fill="none" xmlns="http://www.w3.org/2000/svg">
<path d="M18.9208 38C16.3325 38 13.8898 37.5004 11.5928 36.5011C9.29434 35.5004 7.28797 34.1423 5.57365 32.4267C3.85934 30.711 2.50111 28.6984 1.49898 26.3889C0.496854 24.0793 -0.00280314 21.6164 1.18276e-05 19C1.18276e-05 16.3499 0.510929 13.8693 1.53276 11.5583C2.5546 9.24737 3.9473 7.23619 5.71088 5.52478C7.47446 3.81337 9.54347 2.46507 11.9179 1.47989C14.2923 0.494704 16.8209 0.00140741 19.5035 0C21.9666 0 24.3115 0.415889 26.5381 1.24767C28.7662 2.08085 30.7268 3.23493 32.42 4.70989C34.1132 6.18767 35.4665 7.94693 36.4799 9.98767C37.4933 12.0284 38 14.2556 38 16.6693C38 19.9317 37.0598 22.5424 35.1794 24.5016C33.299 26.4607 30.7212 27.4416 27.446 27.4444H23.7028C22.8175 27.4444 22.0764 27.7491 21.4796 28.3586C20.8829 28.968 20.5845 29.7026 20.5845 30.5626C20.5845 31.445 20.8484 32.1937 21.3762 32.8088C21.904 33.4238 22.1679 34.1339 22.1679 34.9389C22.1679 35.9663 21.8801 36.7333 21.3044 37.24C20.7302 37.7467 19.937 38 18.9208 38ZM7.38931 20.0556C7.98045 20.0556 8.48011 19.8515 8.88828 19.4433C9.29645 19.0352 9.50054 18.5356 9.50054 17.9444C9.50054 17.3533 9.29645 16.8537 8.88828 16.4456C8.48011 16.0374 7.98045 15.8333 7.38931 15.8333C6.79816 15.8333 6.29851 16.0374 5.89034 16.4456C5.48217 16.8537 5.27808 17.3533 5.27808 17.9444C5.27808 18.5356 5.48217 19.0352 5.89034 19.4433C6.29851 19.8515 6.79816 20.0556 7.38931 20.0556ZM13.723 11.6111C14.3141 11.6111 14.8138 11.407 15.222 10.9989C15.6301 10.5907 15.8342 10.0911 15.8342 9.5C15.8342 8.90889 15.6301 8.40926 15.222 8.00111C14.8138 7.59296 14.3141 7.38889 13.723 7.38889C13.1318 7.38889 12.6322 7.59296 12.224 8.00111C11.8159 8.40926 11.6118 8.90889 11.6118 9.5C11.6118 10.0911 11.8159 10.5907 12.224 10.9989C12.6322 11.407 13.1318 11.6111 13.723 11.6111ZM24.2791 11.6111C24.8703 11.6111 25.3699 11.407 25.7781 10.9989C26.1863 10.5907 26.3904 10.0911 26.3904 9.5C26.3904 8.90889 26.1863 8.40926 25.7781 8.00111C25.3699 7.59296 24.8703 7.38889 24.2791 7.38889C23.688 7.38889 23.1883 7.59296 22.7802 8.00111C22.372 8.40926 22.1679 8.90889 22.1679 9.5C22.1679 10.0911 22.372 10.5907 22.7802 10.9989C23.1883 11.407 23.688 11.6111 24.2791 11.6111ZM30.6128 20.0556C31.204 20.0556 31.7036 19.8515 32.1118 19.4433C32.52 19.0352 32.724 18.5356 32.724 17.9444C32.724 17.3533 32.52 16.8537 32.1118 16.4456C31.7036 16.0374 31.204 15.8333 30.6128 15.8333C30.0217 15.8333 29.522 16.0374 29.1138 16.4456C28.7057 16.8537 28.5016 17.3533 28.5016 17.9444C28.5016 18.5356 28.7057 19.0352 29.1138 19.4433C29.522 19.8515 30.0217 20.0556 30.6128 20.0556Z" fill="#FCEDDA"/>
</svg>
