<svg width="104" height="104" viewBox="0 0 104 104" fill="none" xmlns="http://www.w3.org/2000/svg">
<g clip-path="url(#clip0_387_3866)">
<path d="M39 0H0V39H39V0ZM32.5 32.5H6.5V6.5H32.5V32.5Z" fill="#F7F7F7"/>
<path d="M13 13H26V26H13V13ZM0 104H39V65H0V104ZM6.5 71.5H32.5V97.5H6.5V71.5Z" fill="#F7F7F7"/>
<path d="M13 78H26V91H13V78ZM65 0V39H104V0H65ZM97.5 32.5H71.5V6.5H97.5V32.5Z" fill="#F7F7F7"/>
<path d="M78 13H91V26H78V13ZM13 45.5H0V58.5H19.5V52H13V45.5ZM45.5 58.5H58.5V71.5H45.5V58.5ZM19.5 45.5H32.5V52H19.5V45.5ZM58.5 78H45.5V84.5H52V91H58.5V84.5V78ZM39 45.5V52H32.5V58.5H45.5V45.5H39ZM52 26H58.5V39H52V26ZM58.5 52V58.5H71.5V45.5H52V52H58.5ZM45.5 39H52V45.5H45.5V39ZM58.5 91H71.5V104H58.5V91ZM45.5 91H52V104H45.5V91ZM58.5 71.5H65V78H58.5V71.5ZM58.5 19.5V6.5H52V0H45.5V26H52V19.5H58.5ZM78 91H84.5V104H78V91ZM78 78H91V84.5H78V78ZM71.5 84.5H78V91H71.5V84.5ZM65 78H71.5V84.5H65V78ZM91 65V71.5H97.5V78H104V65H97.5H91ZM97.5 84.5H91V104H104V91H97.5V84.5ZM65 65V71.5H84.5V58.5H71.5V65H65ZM78 45.5V52H91V58.5H104V45.5H91H78Z" fill="#F7F7F7"/>
</g>
<defs>
<clipPath id="clip0_387_3866">
<rect width="104" height="104" fill="white"/>
</clipPath>
</defs>
</svg>
