<svg width="41" height="34" viewBox="0 0 41 34" fill="none" xmlns="http://www.w3.org/2000/svg">
<path d="M2.12467 12.916H0.0830078C0.0830078 13.4575 0.298111 13.9768 0.680998 14.3597C1.06388 14.7426 1.58319 14.9577 2.12467 14.9577V12.916ZM2.12467 21.0827V19.041C1.58319 19.041 1.06388 19.2561 0.680998 19.639C0.298111 20.0219 0.0830078 20.5412 0.0830078 21.0827H2.12467ZM38.8747 12.916V14.9577C39.4162 14.9577 39.9355 14.7426 40.3183 14.3597C40.7012 13.9768 40.9163 13.4575 40.9163 12.916H38.8747ZM38.8747 21.0827H40.9163C40.9163 20.5412 40.7012 20.0219 40.3183 19.639C39.9355 19.2561 39.4162 19.041 38.8747 19.041V21.0827ZM6.20801 4.74935H16.4163V0.666016H6.20801V4.74935ZM16.4163 4.74935H34.7913V0.666016H16.4163V4.74935ZM34.7913 29.2493H16.4163V33.3327H34.7913V29.2493ZM16.4163 29.2493H6.20801V33.3327H16.4163V29.2493ZM14.3747 2.70768V31.291H18.458V2.70768H14.3747ZM3.56813 15.5559C3.95089 15.9388 4.1659 16.458 4.1659 16.9993C4.1659 17.5407 3.95089 18.0599 3.56813 18.4428L6.45505 21.3297C7.60331 20.1811 8.24837 18.6235 8.24837 16.9993C8.24837 15.3752 7.60331 13.8176 6.45505 12.669L3.56813 15.5559ZM37.4312 18.4428C37.0485 18.0599 36.8334 17.5407 36.8334 16.9993C36.8334 16.458 37.0485 15.9388 37.4312 15.5559L34.5443 12.669C33.396 13.8176 32.751 15.3752 32.751 16.9993C32.751 18.6235 33.396 20.1811 34.5443 21.3297L37.4312 18.4428ZM2.12467 14.9577C2.64938 14.9577 3.17001 15.1557 3.56813 15.5559L6.45505 12.669C5.30666 11.5202 3.74899 10.8747 2.12467 10.8743V14.9577ZM4.16634 12.916V6.79102H0.0830078V12.916H4.16634ZM4.16634 27.2077V21.0827H0.0830078V27.2077H4.16634ZM3.56813 18.4428C3.18533 18.8257 2.66611 19.0409 2.12467 19.041V23.1243C3.68859 23.1243 5.26067 22.5261 6.45505 21.3297L3.56813 18.4428ZM37.4312 15.5559C37.814 15.173 38.3332 14.9578 38.8747 14.9577V10.8743C37.3108 10.8743 35.7387 11.4726 34.5443 12.669L37.4312 15.5559ZM36.833 6.79102V12.916H40.9163V6.79102H36.833ZM36.833 21.0827V27.2077H40.9163V21.0827H36.833ZM38.8747 19.041C38.3332 19.0409 37.814 18.8257 37.4312 18.4428L34.5443 21.3297C35.6927 22.4785 37.2504 23.124 38.8747 23.1243V19.041ZM6.20801 29.2493C5.66652 29.2493 5.14722 29.0342 4.76433 28.6514C4.38144 28.2685 4.16634 27.7492 4.16634 27.2077H0.0830078C0.0830078 28.8321 0.728319 30.3901 1.87698 31.5387C3.02564 32.6874 4.58356 33.3327 6.20801 33.3327V29.2493ZM34.7913 33.3327C36.4158 33.3327 37.9737 32.6874 39.1224 31.5387C40.271 30.3901 40.9163 28.8321 40.9163 27.2077H36.833C36.833 27.7492 36.6179 28.2685 36.235 28.6514C35.8521 29.0342 35.3328 29.2493 34.7913 29.2493V33.3327ZM34.7913 4.74935C35.3328 4.74935 35.8521 4.96445 36.235 5.34734C36.6179 5.73023 36.833 6.24953 36.833 6.79102H40.9163C40.9163 5.16656 40.271 3.60865 39.1224 2.45999C37.9737 1.31133 36.4158 0.666016 34.7913 0.666016V4.74935ZM6.20801 0.666016C4.58356 0.666016 3.02564 1.31133 1.87698 2.45999C0.728319 3.60865 0.0830078 5.16656 0.0830078 6.79102H4.16634C4.16634 6.24953 4.38144 5.73023 4.76433 5.34734C5.14722 4.96445 5.66652 4.74935 6.20801 4.74935V0.666016Z" fill="black"/>
</svg>
