<svg width="621" height="174" viewBox="0 0 621 174" fill="none" xmlns="http://www.w3.org/2000/svg">
<g filter="url(#filter0_d_1266_5953)">
<path d="M60.3526 62.8984H38.8004V121.795H25.2642V62.8984H4V51.9062H60.3526V62.8984Z" fill="#FF5126"/>
<path d="M71.0088 51.9062H111.425V62.8024H97.7931V110.947H111.425V121.795H71.0088V110.947H84.3049V62.8024H71.0088V51.9062Z" fill="#FF5126"/>
<path d="M147.906 93.0907L140.514 101.203V121.795H126.977V51.9062H140.514V83.9226L146.85 75.3785L163.842 51.9062H180.354L156.834 82.8186L181.218 121.795H165.186L147.906 93.0907Z" fill="#FF5126"/>
<path d="M229.123 91.1707H200.418V110.899H233.971V121.795H186.882V51.9062H233.827V62.8984H200.418V80.5146H229.123V91.1707Z" fill="#FF5126"/>
<path d="M296.515 62.8984H274.963V121.795H261.427V62.8984H240.163V51.9062H296.515V62.8984Z" fill="#FF5126"/>
<path d="M349.013 93.0907L341.621 101.203V121.795H328.085V51.9062H341.621V83.9226L347.957 75.3785L364.949 51.9062H381.461L357.941 82.8186L382.325 121.795H366.293L349.013 93.0907Z" fill="#FF5126"/>
<path d="M421.59 107.203H400.614L396.485 121.795H382.277L405.174 51.9062H417.414L439.878 121.795H425.67L421.59 107.203ZM403.926 95.7308H418.422L411.27 70.0025L403.926 95.7308Z" fill="#FF5126"/>
<path d="M469.974 95.6828H459.75V121.795H446.262V51.9062H469.686C473.558 51.9062 477.062 52.3703 480.198 53.2983C483.334 54.1943 486.023 55.5223 488.263 57.2823C490.471 59.0423 492.167 61.2344 493.351 63.8584C494.567 66.4824 495.175 69.5225 495.175 72.9785C495.175 75.4745 494.871 77.7305 494.263 79.7466C493.687 81.7306 492.855 83.5066 491.767 85.0746C490.647 86.6746 489.303 88.0667 487.735 89.2507C486.199 90.4347 484.47 91.4587 482.55 92.3227L497.575 121.171V121.795H483.126L469.974 95.6828ZM459.75 84.7386H469.734C471.814 84.7386 473.638 84.4506 475.206 83.8746C476.806 83.2666 478.102 82.4026 479.094 81.2826C479.926 80.3866 480.55 79.3146 480.966 78.0666C481.414 76.8185 481.638 75.4265 481.638 73.8905C481.638 72.0345 481.35 70.4025 480.774 68.9944C480.23 67.5544 479.398 66.3704 478.278 65.4424C477.286 64.6104 476.07 63.9704 474.63 63.5224C473.19 63.0744 471.542 62.8504 469.686 62.8504H459.75V84.7386Z" fill="#FF5126"/>
<path d="M529.159 84.1146L542.935 51.9062H557.767L535.783 97.6028L535.735 121.795H522.295L522.247 97.0268L500.599 51.9062H515.383L529.159 84.1146Z" fill="#FF5126"/>
<path d="M598.712 107.203H577.736L573.607 121.795H559.399L582.296 51.9062H594.536L617 121.795H602.792L598.712 107.203ZM581.048 95.7308H595.544L588.392 70.0025L581.048 95.7308Z" fill="#FF5126"/>
</g>
<g opacity="0.5">
<path d="M171.826 174C165.731 174 159.931 172.231 154.426 168.692C148.921 165.349 144.792 160.139 142.04 153.061C141.057 150.505 140.369 147.753 139.975 144.803C139.582 141.854 139.386 139.102 139.386 136.546V133.892C139.386 132.319 139.484 130.746 139.68 129.173C140.074 127.6 140.958 126.814 142.335 126.814C142.728 126.814 142.925 127.01 142.925 127.403C142.925 128.583 142.826 129.861 142.63 131.237C142.63 132.417 142.63 133.597 142.63 134.776C142.63 144.017 144.891 150.997 149.413 155.715C154.131 160.434 159.931 162.793 166.813 162.793C173.694 162.793 180.379 160.827 186.867 156.895C193.355 152.963 199.352 147.949 204.857 141.854C210.362 135.759 215.572 128.19 220.487 119.146C225.403 110.102 230.023 100.566 234.348 90.539C238.674 80.3153 242.704 70.2882 246.44 60.4576C250.372 50.6271 254.009 41.878 257.352 34.2102C259.318 29.6881 262.955 25.8542 268.264 22.7085C273.769 19.5627 278.979 17.3017 283.894 15.9254C282.518 15.7288 281.142 15.6305 279.765 15.6305C278.586 15.4339 277.406 15.2373 276.226 15.0407L234.643 10.9119C231.497 10.5186 227.369 10.2237 222.257 10.0271C217.145 9.83051 211.738 9.7322 206.036 9.7322C198.369 9.7322 190.504 10.2237 182.443 11.2068C174.382 11.9932 167.108 13.4678 160.619 15.6305C154.131 17.7932 149.413 21.0373 146.464 25.3627C144.891 27.722 144.104 30.4746 144.104 33.6203C144.104 36.7661 144.989 39.7153 146.758 42.4678C148.528 45.2204 150.789 47.3831 153.542 48.9559C153.935 49.3492 154.131 49.6441 154.131 49.8407C154.131 50.4305 153.64 50.922 152.657 51.3153C151.87 51.7085 150.986 51.7085 150.003 51.3153C148.233 50.3322 146.169 48.661 143.809 46.3017C141.45 43.9424 139.287 41.4848 137.321 38.9288C135.552 36.1763 134.274 33.9153 133.487 32.1458C132.308 28.8034 131.718 25.8542 131.718 23.2983C131.718 18.5797 133.291 14.7458 136.436 11.7966C139.779 8.65084 144.006 6.29152 149.118 4.71864C154.426 2.94915 160.03 1.76948 165.928 1.17965C172.023 0.393215 177.823 0 183.328 0C185.491 0 187.555 0 189.521 0C191.487 0 193.355 0.0983039 195.125 0.294912C201.416 0.688127 208.003 1.08135 214.884 1.47458C221.765 1.86779 228.745 2.35932 235.823 2.94915L282.714 6.78305C285.86 6.97966 290.579 7.37288 296.87 7.9627C303.359 8.35593 309.945 8.55254 316.63 8.55254C323.904 8.55254 330.589 8.15932 336.684 7.37288C342.779 6.38983 346.809 4.71864 348.776 2.35931C349.169 1.57287 349.759 1.37626 350.545 1.76949C351.331 2.1627 351.528 2.65423 351.135 3.24406C350.545 5.60339 349.759 7.37288 348.776 8.55254C347.792 10.5186 346.416 12.6814 344.647 15.0407C343.074 17.4 340.616 18.9729 337.274 19.7593C336.487 19.9559 335.406 20.1525 334.03 20.3492C332.653 20.3492 331.179 20.3492 329.606 20.3492C325.084 20.3492 319.579 20.0542 313.091 19.4644C306.799 18.678 300.606 17.8915 294.511 17.1051C288.613 18.0881 283.501 20.8407 279.175 25.3627C274.85 29.8847 271.114 35.0949 267.969 40.9932C264.823 46.6949 262.07 52.1017 259.711 57.2136C255.386 66.061 251.748 74.2204 248.799 81.6916C246.047 88.9661 242.606 97.0272 238.477 105.875C234.348 114.919 230.023 123.864 225.501 132.712C220.979 141.363 215.474 149.227 208.986 156.305C204.07 161.614 198.369 165.841 191.881 168.986C185.392 172.329 178.708 174 171.826 174Z" fill="#FF5126"/>
<path d="M257.246 168.692C256.459 168.692 255.869 168.495 255.476 168.102C254.886 167.709 254.788 167.414 255.181 167.217C259.703 163.678 263.439 160.139 266.388 156.6C269.534 153.061 272.68 148.539 275.825 143.034L279.954 135.956C283.886 129.271 288.31 121.603 293.225 112.953C298.141 104.302 303.056 95.5526 307.971 86.7051C313.083 77.8577 317.703 69.6983 321.832 62.2271C326.158 54.756 329.598 48.7593 332.154 44.2373C334.71 39.5187 335.988 37.1593 335.988 37.1593C341.297 27.9186 347.097 20.939 353.388 16.2203C359.876 11.3051 365.578 8.15932 370.493 6.78305C356.141 6.97966 343.361 8.06102 332.154 10.0271C320.947 11.9932 313.378 16.6136 309.446 23.8881C308.659 25.2644 308.07 26.8373 307.676 28.6068C307.48 30.1797 307.381 31.7526 307.381 33.3254C307.381 38.4373 308.758 42.0746 311.51 44.2373C311.707 44.4339 311.805 44.6305 311.805 44.8271C311.805 45.2204 311.412 45.6136 310.625 46.0068C310.036 46.4 309.446 46.4983 308.856 46.3017C307.086 45.3187 304.924 42.9593 302.368 39.2237C299.812 35.2915 298.239 32.0475 297.649 29.4915C297.059 27.1322 296.764 24.9695 296.764 23.0034C296.764 17.6949 298.632 13.5661 302.368 10.6169C306.103 7.66779 310.625 5.60338 315.934 4.42373C321.439 3.24406 327.042 2.55592 332.744 2.35931C338.446 2.1627 343.164 2.0644 346.9 2.0644H358.697C362.629 2.0644 366.856 2.0644 371.378 2.0644C376.097 1.86779 380.029 1.47457 383.175 0.884735H384.354C385.534 0.884735 386.419 1.27796 387.009 2.0644C387.598 2.85084 387.893 3.63728 387.893 4.42373C387.893 5.99661 387.205 6.78305 385.829 6.78305C385.042 6.78305 384.354 6.78305 383.764 6.78305C383.371 6.58643 382.781 6.48812 381.995 6.48812C372.951 6.48812 363.907 14.3525 354.863 30.0814C354.863 30.0814 353.781 31.8509 351.619 35.3898C349.653 38.7322 347.097 43.0576 343.951 48.3661C341.002 53.6746 337.856 59.278 334.514 65.1763C331.171 71.0746 328.222 76.3831 325.666 81.1017C320.358 90.9322 314.656 101.647 308.561 113.247C302.663 124.651 296.568 136.546 290.276 148.932C288.9 151.292 287.72 154.044 286.737 157.19C285.754 160.139 284.28 161.614 282.314 161.614C281.527 161.614 280.544 161.515 279.364 161.319C278.185 161.122 276.907 161.024 275.531 161.024C272.188 161.024 269.141 161.614 266.388 162.793C263.832 163.973 261.178 165.841 258.425 168.397C258.229 168.593 257.836 168.692 257.246 168.692ZM385.829 165.742C380.914 165.742 375.9 164.17 370.788 161.024C365.676 157.681 360.466 152.57 355.158 145.688C348.866 137.234 343.558 129.075 339.232 121.21C334.907 113.149 331.368 106.17 328.615 100.271C326.059 94.3729 324.093 90.1458 322.717 87.5899C333.727 77.3661 345.032 68.2237 356.632 60.1627C368.429 52.1017 380.127 44.4339 391.727 37.1593C399.592 32.4407 408.046 27.2305 417.09 21.5288C426.134 15.6305 435.276 10.7153 444.517 6.78305C451.005 4.0305 457.297 2.65422 463.392 2.65422C466.144 2.65422 468.897 2.94914 471.649 3.53897C474.402 3.9322 477.056 4.62034 479.612 5.60339C481.578 6.19321 483.839 7.47118 486.395 9.43728C488.951 11.2068 490.032 13.2712 489.639 15.6305C489.639 16.4169 489.246 16.8102 488.459 16.8102C487.476 16.8102 486.592 16.2203 485.805 15.0407C485.019 13.861 483.839 12.6813 482.266 11.5017C480.693 10.322 478.236 9.7322 474.893 9.7322C470.568 9.7322 465.751 10.617 460.442 12.3864C455.331 14.1559 450.809 15.8271 446.876 17.4C439.012 20.7424 430.754 24.3797 422.103 28.3119C413.453 32.2441 405.293 36.3729 397.625 40.6983C390.744 44.4339 383.47 48.7593 375.802 53.6746C368.134 58.5898 360.663 63.6034 353.388 68.7153C346.31 73.6305 339.92 78.1526 334.219 82.2814C335.398 85.2305 337.364 89.6543 340.117 95.5526C342.87 101.451 346.507 108.136 351.029 115.607C355.551 122.881 360.859 130.254 366.954 137.725C371.476 143.231 375.9 147.261 380.225 149.817C384.747 152.176 388.975 153.356 392.907 153.356C398.215 153.356 403.131 151.881 407.653 148.932C412.371 145.786 416.795 141.854 420.924 137.136C425.249 132.417 429.28 127.6 433.015 122.685C433.998 121.505 434.687 120.915 435.08 120.915C435.866 120.915 436.259 121.407 436.259 122.39C436.259 123.57 435.768 124.749 434.785 125.929C426.134 137.922 417.778 147.556 409.717 154.831C401.853 162.105 393.89 165.742 385.829 165.742Z" fill="#FF5126"/>
</g>
<defs>
<filter id="filter0_d_1266_5953" x="0" y="51.9062" width="621" height="77.8887" filterUnits="userSpaceOnUse" color-interpolation-filters="sRGB">
<feFlood flood-opacity="0" result="BackgroundImageFix"/>
<feColorMatrix in="SourceAlpha" type="matrix" values="0 0 0 0 0 0 0 0 0 0 0 0 0 0 0 0 0 0 127 0" result="hardAlpha"/>
<feOffset dy="4"/>
<feGaussianBlur stdDeviation="2"/>
<feComposite in2="hardAlpha" operator="out"/>
<feColorMatrix type="matrix" values="0 0 0 0 0 0 0 0 0 0 0 0 0 0 0 0 0 0 0.25 0"/>
<feBlend mode="normal" in2="BackgroundImageFix" result="effect1_dropShadow_1266_5953"/>
<feBlend mode="normal" in="SourceGraphic" in2="effect1_dropShadow_1266_5953" result="shape"/>
</filter>
</defs>
</svg>
