<svg width="240" height="66" viewBox="0 0 240 66" fill="none" xmlns="http://www.w3.org/2000/svg">
<g filter="url(#filter0_d_1266_5978)">
<path d="M25.3276 23.8579H17.1708V46.198H12.0478V23.8579H4V19.6885H25.3276V23.8579Z" fill="#F7F7F7"/>
<path d="M29.3606 19.6885H44.6569V23.8215H39.4975V42.0832H44.6569V46.198H29.3606V42.0832H34.3927V23.8215H29.3606V19.6885Z" fill="#F7F7F7"/>
<path d="M58.4635 35.3102L55.6658 38.3872V46.198H50.5428V19.6885H55.6658V31.8326L58.0638 28.5918L64.4948 19.6885H70.7441L61.8425 31.4139L71.0711 46.198H65.0034L58.4635 35.3102Z" fill="#F7F7F7"/>
<path d="M89.2014 34.5819H78.3377V42.065H91.0362V46.198H73.2148V19.6885H90.9817V23.8579H78.3377V30.5399H89.2014V34.5819Z" fill="#F7F7F7"/>
<path d="M114.707 23.8579H106.55V46.198H101.427V23.8579H93.3797V19.6885H114.707V23.8579Z" fill="#F7F7F7"/>
<path d="M134.576 35.3102L131.778 38.3872V46.198H126.655V19.6885H131.778V31.8326L134.176 28.5918L140.607 19.6885H146.856L137.955 31.4139L147.183 46.198H141.116L134.576 35.3102Z" fill="#F7F7F7"/>
<path d="M162.044 40.6631H154.105L152.543 46.198H147.165L155.831 19.6885H160.463L168.965 46.198H163.588L162.044 40.6631ZM155.358 36.3116H160.845L158.138 26.5526L155.358 36.3116Z" fill="#F7F7F7"/>
<path d="M180.356 36.2934H176.486V46.198H171.381V19.6885H180.247C181.712 19.6885 183.038 19.8645 184.225 20.2165C185.412 20.5563 186.429 21.0601 187.277 21.7277C188.113 22.3953 188.755 23.2267 189.203 24.222C189.663 25.2174 189.893 26.3705 189.893 27.6814C189.893 28.6282 189.778 29.4839 189.548 30.2486C189.33 31.0012 189.015 31.6748 188.603 32.2696C188.179 32.8765 187.671 33.4045 187.077 33.8536C186.496 34.3027 185.842 34.6911 185.115 35.0189L190.801 45.9613V46.198H185.333L180.356 36.2934ZM176.486 32.1421H180.265C181.052 32.1421 181.742 32.0329 182.336 31.8144C182.941 31.5838 183.432 31.2561 183.807 30.8312C184.122 30.4914 184.358 30.0847 184.516 29.6114C184.685 29.138 184.77 28.61 184.77 28.0273C184.77 27.3233 184.661 26.7043 184.443 26.1702C184.237 25.624 183.922 25.1749 183.499 24.8229C183.123 24.5073 182.663 24.2645 182.118 24.0946C181.573 23.9247 180.949 23.8397 180.247 23.8397H176.486V32.1421Z" fill="#F7F7F7"/>
<path d="M202.755 31.9054L207.969 19.6885H213.582L205.262 37.0216L205.244 46.198H200.157L200.139 36.8032L191.946 19.6885H197.541L202.755 31.9054Z" fill="#F7F7F7"/>
<path d="M229.079 40.6631H221.14L219.577 46.198H214.2L222.866 19.6885H227.498L236 46.198H230.623L229.079 40.6631ZM222.393 36.3116H227.88L225.173 26.5526L222.393 36.3116Z" fill="#F7F7F7"/>
</g>
<g opacity="0.5">
<path d="M67.5157 66C65.2089 66 63.0138 65.3288 60.9303 63.9865C58.8468 62.7187 57.2842 60.7424 56.2425 58.0577C55.8704 57.0882 55.61 56.0441 55.4612 54.9254C55.3124 53.8068 55.2379 52.7627 55.2379 51.7932V50.7865C55.2379 50.1898 55.2751 49.5932 55.3496 48.9966C55.4984 48.4 55.8332 48.1017 56.3541 48.1017C56.5029 48.1017 56.5773 48.1763 56.5773 48.3254C56.5773 48.7729 56.5401 49.2576 56.4657 49.7797C56.4657 50.2271 56.4657 50.6746 56.4657 51.1221C56.4657 54.6271 57.3214 57.2746 59.0329 59.0644C60.8187 60.8543 63.0138 61.7492 65.6182 61.7492C68.2226 61.7492 70.7525 61.0034 73.2081 59.5119C75.6636 58.0204 77.9331 56.1187 80.0166 53.8068C82.1001 51.4949 84.072 48.6237 85.9322 45.1932C87.7925 41.7627 89.5411 38.1458 91.1782 34.3424C92.8152 30.4644 94.3406 26.661 95.7544 22.9322C97.2426 19.2034 98.6192 15.8847 99.8842 12.9763C100.628 11.261 102.005 9.80678 104.014 8.61356C106.097 7.42034 108.069 6.56271 109.93 6.04068C109.409 5.9661 108.888 5.92881 108.367 5.92881C107.921 5.85424 107.474 5.77966 107.028 5.70509L91.2898 4.13898C90.0992 3.98983 88.5366 3.87796 86.6019 3.80339C84.6673 3.72881 82.621 3.69153 80.4631 3.69153C77.5611 3.69153 74.5846 3.87797 71.5338 4.25085C68.483 4.54915 65.7298 5.10848 63.2743 5.92881C60.8187 6.74915 59.0329 7.97966 57.9167 9.62034C57.3214 10.5153 57.0238 11.5593 57.0238 12.7525C57.0238 13.9458 57.3586 15.0644 58.0283 16.1085C58.698 17.1525 59.5537 17.9729 60.5955 18.5695C60.7443 18.7186 60.8187 18.8305 60.8187 18.9051C60.8187 19.1288 60.6327 19.3153 60.2606 19.4644C59.963 19.6136 59.6282 19.6136 59.2561 19.4644C58.5864 19.0915 57.8051 18.4576 56.9122 17.5627C56.0193 16.6678 55.2007 15.7356 54.4566 14.7661C53.7869 13.722 53.3033 12.8644 53.0056 12.1932C52.5592 10.9254 52.3359 9.80678 52.3359 8.83729C52.3359 7.04746 52.9312 5.59322 54.1218 4.47457C55.3868 3.28136 56.9866 2.38644 58.9213 1.78983C60.9303 1.11864 63.051 0.671183 65.2833 0.447452C67.5901 0.149151 69.7852 0 71.8687 0C72.6872 0 73.4685 0 74.2126 0C74.9567 0 75.6636 0.0372877 76.3333 0.111863C78.7144 0.261014 81.2072 0.410167 83.8115 0.559322C86.4159 0.708472 89.0575 0.894913 91.7362 1.11864L109.483 2.57288C110.674 2.64746 112.46 2.79661 114.841 3.02033C117.296 3.16949 119.789 3.24407 122.319 3.24407C125.072 3.24407 127.602 3.09491 129.909 2.79661C132.216 2.42373 133.741 1.78983 134.485 0.894911C134.634 0.596605 134.857 0.52203 135.155 0.671185C135.452 0.820335 135.527 1.00678 135.378 1.23051C135.155 2.12542 134.857 2.79661 134.485 3.24407C134.113 3.98983 133.592 4.81017 132.922 5.70509C132.327 6.6 131.397 7.19661 130.132 7.49492C129.834 7.56949 129.425 7.64407 128.904 7.71864C128.383 7.71864 127.825 7.71864 127.23 7.71864C125.519 7.71864 123.435 7.60678 120.98 7.38305C118.598 7.08475 116.254 6.78644 113.948 6.48813C111.715 6.86102 109.781 7.90508 108.144 9.62034C106.507 11.3356 105.093 13.3119 103.902 15.5492C102.712 17.7119 101.67 19.7627 100.777 21.7017C99.1401 25.0576 97.7635 28.1526 96.6473 30.9865C95.6056 33.7458 94.3034 36.8034 92.7408 40.1593C91.1782 43.5898 89.5411 46.9831 87.8297 50.339C86.1183 53.6204 84.0348 56.6034 81.5792 59.2882C79.719 61.3017 77.5611 62.9051 75.1055 64.0983C72.65 65.3661 70.12 66 67.5157 66Z" fill="#F7F7F7"/>
<path d="M99.8441 63.9865C99.5464 63.9865 99.3232 63.9119 99.1744 63.7627C98.9511 63.6136 98.9139 63.5017 99.0628 63.4271C100.774 62.0848 102.188 60.7424 103.304 59.4C104.495 58.0576 105.685 56.3424 106.876 54.2543L108.438 51.5695C109.927 49.0339 111.601 46.1254 113.461 42.8441C115.321 39.5627 117.182 36.2441 119.042 32.8881C120.977 29.5322 122.725 26.4373 124.288 23.6034C125.925 20.7695 127.227 18.4949 128.194 16.7797C129.162 14.9898 129.645 14.0949 129.645 14.0949C131.655 10.5898 133.85 7.94237 136.231 6.15254C138.686 4.28813 140.844 3.09491 142.704 2.57288C137.273 2.64746 132.436 3.05763 128.194 3.80339C123.953 4.54915 121.088 6.30169 119.6 9.06102C119.302 9.58305 119.079 10.1797 118.93 10.8508C118.856 11.4475 118.819 12.0441 118.819 12.6407C118.819 14.5797 119.34 15.9593 120.381 16.7797C120.456 16.8542 120.493 16.9288 120.493 17.0034C120.493 17.1525 120.344 17.3017 120.046 17.4509C119.823 17.6 119.6 17.6373 119.377 17.5627C118.707 17.1898 117.889 16.2949 116.921 14.878C115.954 13.3864 115.359 12.1559 115.135 11.1864C114.912 10.2915 114.801 9.47119 114.801 8.72542C114.801 6.71187 115.507 5.14576 116.921 4.02712C118.335 2.90847 120.046 2.12542 122.056 1.67797C124.139 1.2305 126.26 0.969486 128.418 0.894911C130.576 0.820335 132.361 0.783048 133.775 0.783048H138.24C139.728 0.783048 141.328 0.783048 143.039 0.783048C144.825 0.708472 146.313 0.559319 147.504 0.335589H147.95C148.397 0.335589 148.732 0.484742 148.955 0.783048C149.178 1.08135 149.29 1.37966 149.29 1.67797C149.29 2.27458 149.029 2.57288 148.508 2.57288C148.211 2.57288 147.95 2.57288 147.727 2.57288C147.578 2.4983 147.355 2.46101 147.057 2.46101C143.635 2.46101 140.212 5.44407 136.789 11.4102C136.789 11.4102 136.38 12.0814 135.561 13.4237C134.817 14.6915 133.85 16.3322 132.659 18.3458C131.543 20.3593 130.352 22.4848 129.087 24.722C127.822 26.9593 126.706 28.9729 125.739 30.7627C123.73 34.4915 121.572 38.5559 119.265 42.9559C117.033 47.2814 114.726 51.7932 112.345 56.4915C111.824 57.3865 111.378 58.4305 111.006 59.6238C110.634 60.7424 110.076 61.3017 109.331 61.3017C109.034 61.3017 108.662 61.2644 108.215 61.1899C107.769 61.1153 107.285 61.078 106.764 61.078C105.499 61.078 104.346 61.3017 103.304 61.7492C102.337 62.1966 101.332 62.9051 100.291 63.8746C100.216 63.9492 100.067 63.9865 99.8441 63.9865ZM148.508 62.8678C146.648 62.8678 144.751 62.2712 142.816 61.078C140.881 59.8102 138.91 57.8712 136.9 55.261C134.519 52.0543 132.51 48.9593 130.873 45.9763C129.236 42.9187 127.897 40.2712 126.855 38.0339C125.888 35.7966 125.144 34.1932 124.623 33.2237C128.79 29.3458 133.068 25.878 137.459 22.8203C141.923 19.7627 146.351 16.8542 150.741 14.0949C153.717 12.3051 156.917 10.3288 160.34 8.1661C163.763 5.92881 167.223 4.06441 170.72 2.57288C173.176 1.52881 175.557 1.00677 177.863 1.00677C178.905 1.00677 179.947 1.11864 180.989 1.34237C182.03 1.49152 183.035 1.75254 184.002 2.12542C184.746 2.34915 185.602 2.83389 186.569 3.57966C187.537 4.25084 187.946 5.0339 187.797 5.92881C187.797 6.22712 187.648 6.37627 187.351 6.37627C186.979 6.37627 186.644 6.15254 186.346 5.70509C186.049 5.25763 185.602 4.81017 185.007 4.36271C184.411 3.91525 183.481 3.69153 182.216 3.69153C180.579 3.69153 178.756 4.02712 176.747 4.69831C174.813 5.36949 173.101 6.00339 171.613 6.6C168.636 7.8678 165.511 9.24746 162.237 10.739C158.963 12.2305 155.875 13.7966 152.973 15.4373C150.369 16.8542 147.616 18.4949 144.714 20.3593C141.812 22.2237 138.984 24.1254 136.231 26.0644C133.552 27.9288 131.134 29.6441 128.976 31.2102C129.422 32.3288 130.166 34.0068 131.208 36.2441C132.25 38.4814 133.626 41.017 135.338 43.8509C137.049 46.6102 139.058 49.4068 141.365 52.2407C143.077 54.3288 144.751 55.8577 146.388 56.8271C148.099 57.7221 149.699 58.1695 151.187 58.1695C153.196 58.1695 155.057 57.6102 156.768 56.4915C158.554 55.2983 160.228 53.8068 161.791 52.017C163.428 50.2271 164.953 48.4 166.367 46.5356C166.739 46.0882 166.999 45.8644 167.148 45.8644C167.446 45.8644 167.595 46.0509 167.595 46.4237C167.595 46.8712 167.409 47.3187 167.037 47.7661C163.763 52.3153 160.6 55.9695 157.549 58.7288C154.573 61.4882 151.559 62.8678 148.508 62.8678Z" fill="#F7F7F7"/>
</g>
<defs>
<filter id="filter0_d_1266_5978" x="0" y="19.6885" width="240" height="34.5098" filterUnits="userSpaceOnUse" color-interpolation-filters="sRGB">
<feFlood flood-opacity="0" result="BackgroundImageFix"/>
<feColorMatrix in="SourceAlpha" type="matrix" values="0 0 0 0 0 0 0 0 0 0 0 0 0 0 0 0 0 0 127 0" result="hardAlpha"/>
<feOffset dy="4"/>
<feGaussianBlur stdDeviation="2"/>
<feComposite in2="hardAlpha" operator="out"/>
<feColorMatrix type="matrix" values="0 0 0 0 0 0 0 0 0 0 0 0 0 0 0 0 0 0 0.25 0"/>
<feBlend mode="normal" in2="BackgroundImageFix" result="effect1_dropShadow_1266_5978"/>
<feBlend mode="normal" in="SourceGraphic" in2="effect1_dropShadow_1266_5978" result="shape"/>
</filter>
</defs>
</svg>
